<?xml version="1.0" encoding="UTF-8"?>
<svg width="12px" height="11px" viewBox="0 0 12 11" version="1.1" xmlns="http://www.w3.org/2000/svg" xmlns:xlink="http://www.w3.org/1999/xlink">
    <!-- Generator: Sketch 53.2 (72643) - https://sketchapp.com -->
    <title>close</title>
    <desc>Created with Sketch.</desc>
    <g id="Site" stroke="none" stroke-width="1" fill="none" fill-rule="evenodd">
        <g id="multimedianordic-brief" transform="translate(-619.000000, -674.000000)" fill="#FF2A2D">
            <g id="Group-7" transform="translate(143.000000, 311.000000)">
                <path d="M483,367.192388 L488,367.192388 C488.276142,367.192388 488.5,367.416246 488.5,367.692388 L488.5,368.692388 C488.5,368.968531 488.276142,369.192388 488,369.192388 L483,369.192388 L483,374.192388 C483,374.468531 482.776142,374.692388 482.5,374.692388 L481.5,374.692388 C481.223858,374.692388 481,374.468531 481,374.192388 L481,369.192388 L476,369.192388 C475.723858,369.192388 475.5,368.968531 475.5,368.692388 L475.5,367.692388 C475.5,367.416246 475.723858,367.192388 476,367.192388 L481,367.192388 L481,362.192388 C481,361.916246 481.223858,361.692388 481.5,361.692388 L482.5,361.692388 C482.776142,361.692388 483,361.916246 483,362.192388 L483,367.192388 Z" id="close" transform="translate(482.000000, 368.192388) rotate(-315.000000) translate(-482.000000, -368.192388) "></path>
            </g>
        </g>
    </g>
</svg>