<?xml version="1.0" encoding="UTF-8"?>
<svg width="180px" height="108px" viewBox="0 0 180 108" version="1.1" xmlns="http://www.w3.org/2000/svg" xmlns:xlink="http://www.w3.org/1999/xlink">
    <!-- Generator: Sketch 53.2 (72643) - https://sketchapp.com -->
    <title>Group</title>
    <desc>Created with Sketch.</desc>
    <g id="Site" stroke="none" stroke-width="1" fill="none" fill-rule="evenodd">
        <g id="multimedianordic-brief" transform="translate(-632.000000, -86.000000)">
            <g id="Group" transform="translate(632.000000, 86.000000)">
                <g id="Group-7">
                    <g id="logo" transform="translate(56.000000, 0.000000)">
                        <g id="Group-5">
                            <polygon id="Fill-1" fill="#58CC4C" points="0 0.918891211 0 72.3579984 65.4710704 72.3579984"></polygon>
                            <g id="Group-4" transform="translate(28.816901, 0.713326)" fill="#FFFFFF">
                                <path d="M36.6545408,0.20529007 L36.6545408,71.6443972 C16.6881465,71.6443972 0.504202817,55.6547349 0.504202817,35.9248436 C0.504202817,16.1958709 16.6881465,0.20529007 36.6545408,0.20529007" id="Fill-2"></path>
                            </g>
                        </g>
                    </g>
                    <path d="M2.8896,107.02592 L7.10542736e-14,107.02592 L7.10542736e-14,92.57792 L2.7864,92.57792 L8.8752,103.2488 L14.94336,92.57792 L17.72976,92.57792 L17.72976,107.02592 L14.84016,107.02592 L14.84016,98.62544 L10.05168,107.02592 L7.67808,107.02592 L2.8896,98.62544 L2.8896,107.02592 Z M29.94864,96.70592 L29.94864,107.02592 L27.30672,107.02592 L27.30672,105.45728 C26.9489601,105.98016 26.5086399,106.4136 25.98576,106.7576 C25.4628801,107.1016 24.80928,107.2736 24.02496,107.2736 C22.82784,107.2736 21.9334401,106.89864 21.34176,106.14872 C20.7500799,105.3988 20.45424,104.39088 20.45424,103.12496 L20.45424,96.70592 L23.24064,96.70592 L23.24064,102.44384 C23.24064,103.18688 23.3782401,103.74072 23.65344,104.10536 C23.9286399,104.47 24.3689601,104.65232 24.9744,104.65232 C25.7449599,104.65232 26.3091201,104.37368 26.66688,103.8164 C27.0246399,103.25912 27.20352,102.53328 27.20352,101.63888 L27.20352,96.70592 L29.94864,96.70592 Z M35.12928,92.57792 L35.12928,107.02592 L32.38416,107.02592 L32.38416,92.57792 L35.12928,92.57792 Z M43.69488,106.81952 C43.3095999,106.91584 42.9277599,106.99152 42.54936,107.04656 C42.1709601,107.1016 41.8097601,107.12912 41.46576,107.12912 C40.5025599,107.12912 39.7560801,106.88144 39.22632,106.38608 C38.6965599,105.89072 38.43168,105.05136 38.43168,103.868 L38.43168,98.99696 L36.55344,98.99696 L36.55344,96.70592 L38.43168,96.70592 L38.43168,93.94016 L41.15616,93.94016 L41.15616,96.70592 L43.77744,96.70592 L43.77744,98.99696 L41.15616,98.99696 L41.15616,103.47584 C41.15616,103.80608 41.23872,104.04344 41.40384,104.18792 C41.56896,104.3324 41.8304001,104.40464 42.18816,104.40464 C42.39456,104.40464 42.6044001,104.39432 42.81768,104.37368 C43.0309599,104.35304 43.32336,104.30832 43.69488,104.23952 L43.69488,106.81952 Z M45.408,93.7544 C45.408,93.25904 45.57312,92.8427999 45.90336,92.50568 C46.2336,92.1685601 46.6464,92 47.14176,92 C47.63712,92 48.0533601,92.1685601 48.39048,92.50568 C48.7275999,92.8427999 48.89616,93.25904 48.89616,93.7544 C48.89616,94.24976 48.7275999,94.66256 48.39048,94.9928 C48.0533601,95.32304 47.63712,95.48816 47.14176,95.48816 C46.6464,95.48816 46.2336,95.32304 45.90336,94.9928 C45.57312,94.66256 45.408,94.24976 45.408,93.7544 Z M48.504,96.70592 L48.504,107.02592 L45.77952,107.02592 L45.77952,96.70592 L48.504,96.70592 Z M60.10368,98.37776 C60.4201599,97.8136001 60.8604801,97.3526399 61.42464,96.99488 C61.9887999,96.6371201 62.70432,96.45824 63.5712,96.45824 C64.7820801,96.45824 65.7349599,96.8366399 66.42984,97.59344 C67.1247201,98.3502401 67.47216,99.4028801 67.47216,100.75136 L67.47216,107.02592 L64.72704,107.02592 L64.72704,101.30864 C64.72704,99.82256 64.10784,99.07952 62.86944,99.07952 C62.45664,99.07952 62.10576,99.1552001 61.8168,99.30656 C61.52784,99.4579199 61.2939201,99.66776 61.11504,99.93608 C60.9361599,100.2044 60.80544,100.52088 60.72288,100.88552 C60.64032,101.25016 60.59904,101.65264 60.59904,102.09296 L60.59904,107.02592 L57.87456,107.02592 L57.87456,101.30864 C57.87456,99.82256 57.2484801,99.07952 55.99632,99.07952 C55.58352,99.07952 55.2360801,99.1552001 54.954,99.30656 C54.6719199,99.4579199 54.4414401,99.66776 54.26256,99.93608 C54.0836799,100.2044 53.9564001,100.52088 53.88072,100.88552 C53.8050399,101.25016 53.7672,101.65264 53.7672,102.09296 L53.7672,107.02592 L51.04272,107.02592 L51.04272,96.70592 L53.68464,96.70592 L53.68464,98.21264 C54.0011199,97.71728 54.4139199,97.3010399 54.92304,96.96392 C55.4321601,96.6268001 56.0926401,96.45824 56.90448,96.45824 C58.4456001,96.45824 59.5119999,97.09808 60.10368,98.37776 Z M69.26784,101.86592 C69.26784,101.10912 69.39168,100.40048 69.63936,99.74 C69.88704,99.07952 70.23792,98.5050401 70.692,98.01656 C71.14608,97.5280799 71.6999199,97.1462399 72.35352,96.87104 C73.0071201,96.5958401 73.7398401,96.45824 74.55168,96.45824 C75.336,96.45824 76.0446399,96.5889599 76.6776,96.8504 C77.3105601,97.1118401 77.8472001,97.47992 78.28752,97.95464 C78.7278399,98.42936 79.0649601,99.00728 79.29888,99.6884 C79.5327999,100.36952 79.64976,101.12288 79.64976,101.94848 L79.64976,102.69152 L72.05424,102.69152 L72.07488,102.7328 C72.15744,103.0768 72.2916,103.37264 72.47736,103.62032 C72.66312,103.868 72.87984,104.0744 73.12752,104.23952 C73.3752,104.40464 73.6469601,104.52504 73.9428,104.60072 C74.2386399,104.6764 74.5379199,104.71424 74.84064,104.71424 C75.45984,104.71424 76.0136799,104.61792 76.50216,104.42528 C76.9906401,104.23264 77.4137601,103.97808 77.77152,103.6616 L78.90672,105.91136 C78.4801599,106.26912 77.93664,106.5856 77.27616,106.8608 C76.61568,107.136 75.79008,107.2736 74.79936,107.2736 C73.93248,107.2736 73.1550399,107.136 72.46704,106.8608 C71.7790401,106.5856 71.19768,106.2072 70.72296,105.7256 C70.24824,105.244 69.88704,104.67296 69.63936,104.01248 C69.39168,103.352 69.26784,102.63648 69.26784,101.86592 Z M76.6776,100.71008 C76.6088001,100.14592 76.38864,99.6815201 76.01712,99.31688 C75.6456,98.9522399 75.1296,98.76992 74.46912,98.76992 C73.80864,98.76992 73.272,98.9384801 72.8592,99.2756 C72.4464,99.6127199 72.1712001,100.09088 72.0336,100.71008 L76.6776,100.71008 Z M86.23392,99.10016 C85.8486399,99.10016 85.49088,99.1655201 85.16064,99.29624 C84.8304,99.4269599 84.5448801,99.6127199 84.30408,99.85352 C84.0632799,100.09432 83.8740801,100.38672 83.73648,100.73072 C83.5988799,101.07472 83.53008,101.45312 83.53008,101.86592 C83.53008,102.27872 83.5988799,102.65712 83.73648,103.00112 C83.8740801,103.34512 84.0632799,103.63752 84.30408,103.87832 C84.5448801,104.11912 84.8304,104.30488 85.16064,104.4356 C85.49088,104.56632 85.8486399,104.63168 86.23392,104.63168 C87.0044799,104.63168 87.64776,104.384 88.16376,103.88864 C88.67976,103.39328 88.93776,102.71904 88.93776,101.86592 C88.93776,100.99904 88.67976,100.32136 88.16376,99.83288 C87.64776,99.3443999 87.0044799,99.10016 86.23392,99.10016 Z M91.57968,92.57792 L91.57968,107.02592 L88.8552,107.02592 L88.8552,105.58112 C88.48368,106.104 88.00896,106.52024 87.43104,106.82984 C86.85312,107.13944 86.1857601,107.29424 85.42896,107.29424 C84.7822401,107.29424 84.1767999,107.17384 83.61264,106.93304 C83.0484801,106.69224 82.54968,106.34136 82.11624,105.8804 C81.6828,105.41944 81.34224,104.85184 81.09456,104.1776 C80.84688,103.50336 80.72304,102.7328 80.72304,101.86592 C80.72304,100.99904 80.84688,100.22848 81.09456,99.55424 C81.34224,98.8799999 81.6793599,98.3123999 82.10592,97.85144 C82.5324801,97.3904801 83.0278401,97.0396001 83.592,96.7988 C84.1561599,96.5579999 84.7547199,96.4376 85.38768,96.4376 C86.1995199,96.4376 86.8909599,96.6061601 87.462,96.94328 C88.0330401,97.2803999 88.4974401,97.69664 88.8552,98.192 L88.8552,92.57792 L91.57968,92.57792 Z M93.74688,93.7544 C93.74688,93.25904 93.912,92.8427999 94.24224,92.50568 C94.57248,92.1685601 94.98528,92 95.48064,92 C95.976,92 96.3922401,92.1685601 96.72936,92.50568 C97.0664799,92.8427999 97.23504,93.25904 97.23504,93.7544 C97.23504,94.24976 97.0664799,94.66256 96.72936,94.9928 C96.3922401,95.32304 95.976,95.48816 95.48064,95.48816 C94.98528,95.48816 94.57248,95.32304 94.24224,94.9928 C93.912,94.66256 93.74688,94.24976 93.74688,93.7544 Z M96.84288,96.70592 L96.84288,107.02592 L94.1184,107.02592 L94.1184,96.70592 L96.84288,96.70592 Z M105.44976,102.44384 L102.8904,102.75344 C102.46384,102.82224 102.14392,102.9564 101.93064,103.15592 C101.71736,103.35544 101.61072,103.59968 101.61072,103.88864 C101.61072,104.21888 101.73456,104.48376 101.98224,104.68328 C102.22992,104.8828 102.59456,104.98256 103.07616,104.98256 C103.43392,104.98256 103.76072,104.92408 104.05656,104.80712 C104.3524,104.69016 104.60352,104.53536 104.80992,104.34272 C105.01632,104.15008 105.17456,103.92648 105.28464,103.67192 C105.39472,103.41736 105.44976,103.1456 105.44976,102.85664 L105.44976,102.44384 Z M99.05136,98.8112 C99.3953601,98.02688 99.9663999,97.4420801 100.76448,97.0568 C101.56256,96.6715199 102.52576,96.47888 103.65408,96.47888 C105.16768,96.47888 106.29944,96.8159999 107.04936,97.49024 C107.79928,98.1644801 108.17424,99.224 108.17424,100.6688 L108.17424,107.04656 L105.44976,107.04656 L105.44976,105.64304 C105.17456,106.05584 104.77896,106.42736 104.26296,106.7576 C103.74696,107.08784 103.08304,107.25296 102.2712,107.25296 C101.76208,107.25296 101.29424,107.17384 100.86768,107.0156 C100.44112,106.85736 100.07304,106.6372 99.76344,106.35512 C99.45384,106.07304 99.2130399,105.73592 99.04104,105.34376 C98.8690401,104.9516 98.78304,104.51472 98.78304,104.03312 C98.78304,103.56528 98.8656,103.14216 99.03072,102.76376 C99.19584,102.38536 99.4263201,102.05856 99.72216,101.78336 C100.018,101.50816 100.36544,101.28456 100.76448,101.11256 C101.16352,100.94056 101.60384,100.83392 102.08544,100.79264 L104.91312,100.54496 C105.27088,100.50368 105.44976,100.36608 105.44976,100.13216 L105.44976,99.96704 C105.44976,99.6643199 105.30528,99.4166399 105.01632,99.224 C104.72736,99.0313601 104.27328,98.93504 103.65408,98.93504 C103.37888,98.93504 103.11056,98.9591201 102.84912,99.00728 C102.58768,99.0554399 102.34,99.13112 102.10608,99.23432 C101.87216,99.33752 101.66576,99.47168 101.48688,99.6368 C101.308,99.80192 101.1704,100.00832 101.07408,100.256 L99.05136,98.8112 Z M129.80496,92.57792 L129.80496,107.02592 L127.28688,107.02592 L119.48496,97.53152 L119.48496,107.02592 L116.59536,107.02592 L116.59536,92.57792 L119.11344,92.57792 L126.91536,102.07232 L126.91536,92.57792 L129.80496,92.57792 Z M131.80704,101.86592 C131.80704,101.06784 131.94808,100.33512 132.23016,99.66776 C132.51224,99.0004001 132.90096,98.42936 133.39632,97.95464 C133.89168,97.47992 134.47648,97.1118401 135.15072,96.8504 C135.82496,96.5889599 136.56112,96.45824 137.3592,96.45824 C138.15728,96.45824 138.89344,96.5889599 139.56768,96.8504 C140.24192,97.1118401 140.82672,97.47992 141.32208,97.95464 C141.81744,98.42936 142.20616,99.0004001 142.48824,99.66776 C142.77032,100.33512 142.91136,101.06784 142.91136,101.86592 C142.91136,102.67776 142.77032,103.41392 142.48824,104.0744 C142.20616,104.73488 141.81744,105.30248 141.32208,105.7772 C140.82672,106.25192 140.24192,106.62 139.56768,106.88144 C138.89344,107.14288 138.15728,107.2736 137.3592,107.2736 C136.56112,107.2736 135.82496,107.14288 135.15072,106.88144 C134.47648,106.62 133.89168,106.25192 133.39632,105.7772 C132.90096,105.30248 132.51224,104.73488 132.23016,104.0744 C131.94808,103.41392 131.80704,102.67776 131.80704,101.86592 Z M140.10432,101.86592 C140.10432,101.45312 140.03552,101.07816 139.89792,100.74104 C139.76032,100.40392 139.56768,100.11496 139.32,99.87416 C139.07232,99.6333599 138.77992,99.4475999 138.4428,99.31688 C138.10568,99.1861601 137.74448,99.1208 137.3592,99.1208 C136.97392,99.1208 136.61272,99.1861601 136.2756,99.31688 C135.93848,99.4475999 135.64608,99.6333599 135.3984,99.87416 C135.15072,100.11496 134.95808,100.40392 134.82048,100.74104 C134.68288,101.07816 134.61408,101.45312 134.61408,101.86592 C134.61408,102.27872 134.68288,102.65368 134.82048,102.9908 C134.95808,103.32792 135.15072,103.61688 135.3984,103.85768 C135.64608,104.09848 135.93848,104.28424 136.2756,104.41496 C136.61272,104.54568 136.97392,104.61104 137.3592,104.61104 C137.74448,104.61104 138.10568,104.54568 138.4428,104.41496 C138.77992,104.28424 139.07232,104.09848 139.32,103.85768 C139.56768,103.61688 139.76032,103.32792 139.89792,102.9908 C140.03552,102.65368 140.10432,102.27872 140.10432,101.86592 Z M147.28704,98.3984 C147.56224,97.7929601 147.9372,97.3182401 148.41192,96.97424 C148.88664,96.6302399 149.48864,96.45824 150.21792,96.45824 C150.41056,96.45824 150.586,96.4720001 150.74424,96.49952 C150.90248,96.5270399 151.06416,96.56144 151.22928,96.60272 L151.22928,99.5336 C151.03664,99.4648001 150.83712,99.42008 150.63072,99.39944 C150.42432,99.3788 150.21104,99.36848 149.99088,99.36848 C149.08272,99.36848 148.42224,99.6196001 148.00944,100.12184 C147.59664,100.62408 147.39024,101.37056 147.39024,102.36128 L147.39024,107.02592 L144.66576,107.02592 L144.66576,96.70592 L147.28704,96.70592 L147.28704,98.3984 Z M157.50384,99.10016 C157.11856,99.10016 156.7608,99.1655201 156.43056,99.29624 C156.10032,99.4269599 155.8148,99.6127199 155.574,99.85352 C155.3332,100.09432 155.144,100.38672 155.0064,100.73072 C154.8688,101.07472 154.8,101.45312 154.8,101.86592 C154.8,102.27872 154.8688,102.65712 155.0064,103.00112 C155.144,103.34512 155.3332,103.63752 155.574,103.87832 C155.8148,104.11912 156.10032,104.30488 156.43056,104.4356 C156.7608,104.56632 157.11856,104.63168 157.50384,104.63168 C158.2744,104.63168 158.91768,104.384 159.43368,103.88864 C159.94968,103.39328 160.20768,102.71904 160.20768,101.86592 C160.20768,100.99904 159.94968,100.32136 159.43368,99.83288 C158.91768,99.3443999 158.2744,99.10016 157.50384,99.10016 Z M162.8496,92.57792 L162.8496,107.02592 L160.12512,107.02592 L160.12512,105.58112 C159.7536,106.104 159.27888,106.52024 158.70096,106.82984 C158.12304,107.13944 157.45568,107.29424 156.69888,107.29424 C156.05216,107.29424 155.44672,107.17384 154.88256,106.93304 C154.3184,106.69224 153.8196,106.34136 153.38616,105.8804 C152.95272,105.41944 152.61216,104.85184 152.36448,104.1776 C152.1168,103.50336 151.99296,102.7328 151.99296,101.86592 C151.99296,100.99904 152.1168,100.22848 152.36448,99.55424 C152.61216,98.8799999 152.94928,98.3123999 153.37584,97.85144 C153.8024,97.3904801 154.29776,97.0396001 154.86192,96.7988 C155.42608,96.5579999 156.02464,96.4376 156.6576,96.4376 C157.46944,96.4376 158.16088,96.6061601 158.73192,96.94328 C159.30296,97.2803999 159.76736,97.69664 160.12512,98.192 L160.12512,92.57792 L162.8496,92.57792 Z M165.0168,93.7544 C165.0168,93.25904 165.18192,92.8427999 165.51216,92.50568 C165.8424,92.1685601 166.2552,92 166.75056,92 C167.24592,92 167.66216,92.1685601 167.99928,92.50568 C168.3364,92.8427999 168.50496,93.25904 168.50496,93.7544 C168.50496,94.24976 168.3364,94.66256 167.99928,94.9928 C167.66216,95.32304 167.24592,95.48816 166.75056,95.48816 C166.2552,95.48816 165.8424,95.32304 165.51216,94.9928 C165.18192,94.66256 165.0168,94.24976 165.0168,93.7544 Z M168.1128,96.70592 L168.1128,107.02592 L165.38832,107.02592 L165.38832,96.70592 L168.1128,96.70592 Z M170.01168,101.86592 C170.01168,101.05408 170.14928,100.31448 170.42448,99.64712 C170.69968,98.9797601 171.08152,98.40872 171.57,97.934 C172.05848,97.45928 172.63984,97.0946399 173.31408,96.84008 C173.98832,96.5855201 174.72448,96.45824 175.52256,96.45824 C176.34816,96.45824 177.0912,96.5924 177.75168,96.86072 C178.41216,97.12904 178.97632,97.4971199 179.44416,97.96496 L177.89616,100.1528 C177.6072,99.86384 177.27008,99.6196001 176.8848,99.42008 C176.49952,99.2205599 176.04544,99.1208 175.52256,99.1208 C175.13728,99.1208 174.77952,99.1861601 174.44928,99.31688 C174.11904,99.4475999 173.83352,99.6333599 173.59272,99.87416 C173.35192,100.11496 173.16272,100.40392 173.02512,100.74104 C172.88752,101.07816 172.81872,101.45312 172.81872,101.86592 C172.81872,102.27872 172.88752,102.65368 173.02512,102.9908 C173.16272,103.32792 173.35192,103.61688 173.59272,103.85768 C173.83352,104.09848 174.11904,104.28424 174.44928,104.41496 C174.77952,104.54568 175.13728,104.61104 175.52256,104.61104 C176.04544,104.61104 176.50984,104.50784 176.91576,104.30144 C177.32168,104.09504 177.66912,103.84736 177.95808,103.5584 L179.4648,105.74624 C179.02448,106.18656 178.4672,106.5512 177.79296,106.84016 C177.11872,107.12912 176.34816,107.2736 175.48128,107.2736 C174.69696,107.2736 173.96768,107.14632 173.29344,106.89176 C172.6192,106.6372 172.04128,106.27256 171.55968,105.79784 C171.07808,105.32312 170.69968,104.75552 170.42448,104.09504 C170.14928,103.43456 170.01168,102.69152 170.01168,101.86592 Z" id="MultimediaNordic" fill="#FFFFFF" fill-rule="nonzero"></path>
                </g>
            </g>
        </g>
    </g>
</svg>