<?xml version="1.0" encoding="UTF-8"?>
<svg width="219px" height="57px" viewBox="0 0 219 57" version="1.1" xmlns="http://www.w3.org/2000/svg" xmlns:xlink="http://www.w3.org/1999/xlink">
    <!-- Generator: Sketch 53.2 (72643) - https://sketchapp.com -->
    <title>Group</title>
    <desc>Created with Sketch.</desc>
    <g id="Site" stroke="none" stroke-width="1" fill="none" fill-rule="evenodd">
        <g id="multimedianordic-brief" transform="translate(-144.000000, -76.000000)">
            <g id="Group" transform="translate(144.000000, 76.000000)">
                <g id="Group-2">
                    <g id="logo" transform="translate(0.000000, 0.184000)">
                        <g id="Group-5">
                            <polygon id="Fill-1" fill="#58CC4C" points="0 0.717792499 0 56.5225 51.4245499 56.5225"></polygon>
                            <g id="Group-4" transform="translate(22.634366, 0.557215)" fill="#FFFFFF">
                                <path d="M28.7904757,0.160362478 L28.7904757,55.96507 C13.1077805,55.96507 0.396028394,43.4747343 0.396028394,28.0627162 C0.396028394,12.6514157 13.1077805,0.160362478 28.7904757,0.160362478" id="Fill-2"></path>
                            </g>
                        </g>
                    </g>
                    <path d="M82.1883802,22 L78.4434586,22 L78.4434586,3.275392 L82.054633,3.275392 L89.9457178,17.1048525 L97.8100531,3.275392 L101.421228,3.275392 L101.421228,22 L97.6763059,22 L97.6763059,11.1129779 L91.4704358,22 L88.3942502,22 L82.1883802,11.1129779 L82.1883802,22 Z M117.256896,8.62528 L117.256896,22 L113.832968,22 L113.832968,19.9670426 C113.369311,20.6446949 112.798656,21.2064331 112.121004,21.6522573 C111.443351,22.0980814 110.596285,22.3209933 109.579807,22.3209933 C108.028339,22.3209933 106.869197,21.835045 106.10238,20.8631488 C105.335562,19.8912526 104.952154,18.584988 104.952154,16.9443558 L104.952154,8.62528 L108.563328,8.62528 L108.563328,16.0616243 C108.563328,17.0246042 108.741658,17.7423807 109.098317,18.2149542 C109.454976,18.6875278 110.025631,18.9238144 110.810281,18.9238144 C111.808927,18.9238144 112.540078,18.562697 113.003735,17.8404621 C113.467392,17.1182272 113.69922,16.1775384 113.69922,15.0183962 L113.69922,8.62528 L117.256896,8.62528 Z M123.971005,3.275392 L123.971005,22 L120.41333,22 L120.41333,3.275392 L123.971005,3.275392 Z M135.072023,21.7325056 C134.5727,21.8573365 134.077835,21.9554175 133.587429,22.0267494 C133.097023,22.0980814 132.628908,22.1337472 132.183084,22.1337472 C130.934776,22.1337472 129.967338,21.8127539 129.280769,21.1707674 C128.5942,20.5287808 128.250916,19.4409701 128.250916,17.9073357 L128.250916,11.5944678 L125.816717,11.5944678 L125.816717,8.62528 L128.250916,8.62528 L128.250916,5.04085504 L131.781842,5.04085504 L131.781842,8.62528 L135.179021,8.62528 L135.179021,11.5944678 L131.781842,11.5944678 L131.781842,17.3990963 C131.781842,17.8270874 131.88884,18.1347059 132.102835,18.321952 C132.316831,18.5091981 132.655657,18.6028211 133.119314,18.6028211 C133.386808,18.6028211 133.658761,18.5894464 133.935172,18.562697 C134.211583,18.5359475 134.590533,18.4779903 135.072023,18.3888256 L135.072023,21.7325056 Z M137.292227,4.80011008 C137.292227,4.15812352 137.506222,3.61867634 137.934213,3.18176896 C138.362204,2.74486158 138.897193,2.52640768 139.53918,2.52640768 C140.181166,2.52640768 140.720613,2.74486158 141.157521,3.18176896 C141.594428,3.61867634 141.812882,4.15812352 141.812882,4.80011008 C141.812882,5.44209664 141.594428,5.97708544 141.157521,6.40507648 C140.720613,6.83306752 140.181166,7.04706304 139.53918,7.04706304 C138.897193,7.04706304 138.362204,6.83306752 137.934213,6.40507648 C137.506222,5.97708544 137.292227,5.44209664 137.292227,4.80011008 Z M141.304643,8.62528 L141.304643,22 L137.773716,22 L137.773716,8.62528 L141.304643,8.62528 Z M156.337828,10.7919846 C156.747986,10.0608334 157.318641,9.46342898 158.049792,8.99977216 C158.780943,8.53611534 159.708257,8.30428672 160.831734,8.30428672 C162.401034,8.30428672 163.635967,8.79469298 164.536531,9.77550592 C165.437096,10.7563189 165.887378,12.1205403 165.887378,13.8681702 L165.887378,22 L162.329702,22 L162.329702,14.5904051 C162.329702,12.6644454 161.527219,11.7014656 159.922253,11.7014656 C159.387264,11.7014656 158.932524,11.799547 158.558031,11.9957094 C158.183539,12.1918719 157.880379,12.4638246 157.64855,12.8115674 C157.416722,13.1593101 157.247309,13.569468 157.140311,14.0420416 C157.033313,14.5146152 156.979814,15.0362293 156.979814,15.6068838 L156.979814,22 L153.448888,22 L153.448888,14.5904051 C153.448888,12.6644454 152.637489,11.7014656 151.014689,11.7014656 C150.4797,11.7014656 150.029418,11.799547 149.663843,11.9957094 C149.298267,12.1918719 148.999565,12.4638246 148.767736,12.8115674 C148.535908,13.1593101 148.370953,13.569468 148.272872,14.0420416 C148.17479,14.5146152 148.12575,15.0362293 148.12575,15.6068838 L148.12575,22 L144.594824,22 L144.594824,8.62528 L148.018752,8.62528 L148.018752,10.5779891 C148.42891,9.93600256 148.963899,9.39655538 149.623718,8.959648 C150.283538,8.52274062 151.13952,8.30428672 152.191665,8.30428672 C154.188956,8.30428672 155.57101,9.13351936 156.337828,10.7919846 Z M168.214579,15.31264 C168.214579,14.3318271 168.375076,13.4134298 168.696069,12.5574477 C169.017062,11.7014656 169.471803,10.9569397 170.060291,10.3238694 C170.648778,9.69079922 171.366555,9.19593458 172.21362,8.83927552 C173.060686,8.48261646 174.010291,8.30428672 175.062436,8.30428672 C176.078915,8.30428672 176.997312,8.4736997 177.817628,8.81252608 C178.637944,9.15135246 179.33343,9.628384 179.904084,10.2436211 C180.474739,10.8588582 180.911647,11.6078426 181.214807,12.4905741 C181.517967,13.3733056 181.669548,14.3496602 181.669548,15.4196378 L181.669548,16.3826176 L171.825754,16.3826176 L171.852503,16.4361165 C171.959501,16.8819406 172.133372,17.2653491 172.374117,17.5863424 C172.614862,17.9073357 172.895731,18.1748301 173.216724,18.3888256 C173.537718,18.6028211 173.889919,18.7588594 174.273327,18.8569408 C174.656736,18.9550222 175.044603,19.0040627 175.436928,19.0040627 C176.239411,19.0040627 176.957188,18.8792319 177.590258,18.6295706 C178.223328,18.3799093 178.771692,18.0499992 179.235348,17.6398413 L180.706568,20.5555302 C180.153746,21.0191871 179.449344,21.4293454 178.593362,21.7860045 C177.73738,22.1426635 176.667402,22.3209933 175.383429,22.3209933 C174.259953,22.3209933 173.25239,22.1426635 172.360742,21.7860045 C171.469095,21.4293454 170.715652,20.9389387 170.100415,20.3147853 C169.485178,19.6906318 169.017062,18.9505638 168.696069,18.0945818 C168.375076,17.2385997 168.214579,16.3112856 168.214579,15.31264 Z M177.817628,13.8146714 C177.728463,13.0835201 177.443136,12.4816577 176.961646,12.0090842 C176.480156,11.5365106 175.81142,11.300224 174.955438,11.300224 C174.099456,11.300224 173.403971,11.5186779 172.868982,11.9555853 C172.333993,12.3924927 171.977334,13.0121882 171.799004,13.8146714 L177.817628,13.8146714 Z M190.202619,11.728215 C189.703296,11.728215 189.239639,11.8129217 188.811648,11.9823347 C188.383657,12.1517477 188.013623,12.3924927 187.701546,12.7045696 C187.389469,13.0166465 187.144266,13.3955967 186.965937,13.8414208 C186.787607,14.2872449 186.698442,14.7776512 186.698442,15.31264 C186.698442,15.8476288 186.787607,16.3380351 186.965937,16.7838592 C187.144266,17.2296833 187.389469,17.6086335 187.701546,17.9207104 C188.013623,18.2327873 188.383657,18.4735323 188.811648,18.6429453 C189.239639,18.8123583 189.703296,18.897065 190.202619,18.897065 C191.201265,18.897065 192.034956,18.5760717 192.703692,17.9340851 C193.372428,17.2920986 193.706796,16.4182834 193.706796,15.31264 C193.706796,14.1891635 193.372428,13.3108904 192.703692,12.6778202 C192.034956,12.0447499 191.201265,11.728215 190.202619,11.728215 Z M197.130724,3.275392 L197.130724,22 L193.599798,22 L193.599798,20.1275392 C193.118308,20.8051915 192.503071,21.3446387 191.754086,21.7458803 C191.005102,22.1471219 190.140204,22.3477427 189.159391,22.3477427 C188.321242,22.3477427 187.536591,22.1917045 186.80544,21.8796275 C186.074289,21.5675506 185.427844,21.1128101 184.866106,20.5154061 C184.304367,19.9180021 183.863002,19.1823925 183.542008,18.3085773 C183.221015,17.4347621 183.060518,16.4361165 183.060518,15.31264 C183.060518,14.1891635 183.221015,13.1905179 183.542008,12.3167027 C183.863002,11.4428875 184.299909,10.7072779 184.852731,10.1098739 C185.405553,9.5124699 186.047539,9.05772942 186.778691,8.74565248 C187.509842,8.43357554 188.285576,8.27753728 189.105892,8.27753728 C190.158036,8.27753728 191.054143,8.49599118 191.794211,8.93289856 C192.534279,9.36980594 193.136141,9.90925312 193.599798,10.5512397 L193.599798,3.275392 L197.130724,3.275392 Z M199.939415,4.80011008 C199.939415,4.15812352 200.153411,3.61867634 200.581402,3.18176896 C201.009393,2.74486158 201.544381,2.52640768 202.186368,2.52640768 C202.828355,2.52640768 203.367802,2.74486158 203.804709,3.18176896 C204.241617,3.61867634 204.46007,4.15812352 204.46007,4.80011008 C204.46007,5.44209664 204.241617,5.97708544 203.804709,6.40507648 C203.367802,6.83306752 202.828355,7.04706304 202.186368,7.04706304 C201.544381,7.04706304 201.009393,6.83306752 200.581402,6.40507648 C200.153411,5.97708544 199.939415,5.44209664 199.939415,4.80011008 Z M203.951831,8.62528 L203.951831,22 L200.420905,22 L200.420905,8.62528 L203.951831,8.62528 Z M215.106348,16.0616243 L211.789417,16.4628659 C211.236595,16.5520306 210.821979,16.7259019 210.545568,16.98448 C210.269157,17.2430581 210.130952,17.559593 210.130952,17.9340851 C210.130952,18.3620762 210.291448,18.7053605 210.612442,18.9639386 C210.933435,19.2225166 211.406008,19.3518054 212.030162,19.3518054 C212.493819,19.3518054 212.917352,19.2760155 213.30076,19.1244352 C213.684169,18.9728549 214.00962,18.7722341 214.277115,18.5225728 C214.544609,18.2729115 214.749688,17.9831256 214.892352,17.653216 C215.035016,17.3233064 215.106348,16.9711053 215.106348,16.5966131 L215.106348,16.0616243 Z M206.814021,11.3537229 C207.259845,10.3372442 207.999913,9.5793435 209.034225,9.08002048 C210.068536,8.58069746 211.316843,8.33103616 212.779146,8.33103616 C214.740772,8.33103616 216.207533,8.76794354 217.179429,9.64175872 C218.151325,10.5155739 218.637274,11.8887117 218.637274,13.7611725 L218.637274,22.0267494 L215.106348,22.0267494 L215.106348,20.2077875 C214.749688,20.7427763 214.236991,21.2242662 213.568255,21.6522573 C212.899519,22.0802483 212.039078,22.2942438 210.986934,22.2942438 C210.327114,22.2942438 209.720794,22.1917045 209.167972,21.9866253 C208.61515,21.7815461 208.138118,21.496219 207.736877,21.1306432 C207.335635,20.7650674 207.023558,20.32816 206.800646,19.8199206 C206.577735,19.3116813 206.466278,18.7454847 206.466278,18.1213312 C206.466278,17.5150104 206.573276,16.9666469 206.787272,16.4762406 C207.001267,15.9858344 207.299969,15.5623013 207.683378,15.2056422 C208.066786,14.8489832 208.517069,14.5591973 209.034225,14.3362854 C209.55138,14.1133736 210.122035,13.975168 210.746189,13.9216691 L214.410862,13.6006758 C214.874519,13.547177 215.106348,13.3688472 215.106348,13.065687 L215.106348,12.8516915 C215.106348,12.4593663 214.919101,12.138373 214.544609,11.8887117 C214.170117,11.6390504 213.581629,11.5142195 212.779146,11.5142195 C212.422487,11.5142195 212.074744,11.5454273 211.735918,11.6078426 C211.397092,11.6702578 211.076098,11.7683392 210.772938,11.9020864 C210.469778,12.0358336 210.202284,12.209705 209.970455,12.4237005 C209.738626,12.637696 209.560297,12.9051904 209.435466,13.2261837 L206.814021,11.3537229 Z M95.4561024,37.275392 L95.4561024,56 L92.1926707,56 L82.0813824,43.6952576 L82.0813824,56 L78.3364608,56 L78.3364608,37.275392 L81.5998925,37.275392 L91.7111808,49.5801344 L91.7111808,37.275392 L95.4561024,37.275392 Z M98.0507981,49.31264 C98.0507981,48.2783282 98.2335858,47.3287231 98.5991616,46.4638246 C98.9647374,45.5989262 99.4685184,44.8588582 100.110505,44.2436211 C100.752492,43.628384 101.510392,43.1513525 102.384207,42.8125261 C103.258023,42.4736997 104.212086,42.3042867 105.246397,42.3042867 C106.280709,42.3042867 107.234772,42.4736997 108.108588,42.8125261 C108.982403,43.1513525 109.740303,43.628384 110.38229,44.2436211 C111.024276,44.8588582 111.528057,45.5989262 111.893633,46.4638246 C112.259209,47.3287231 112.441997,48.2783282 112.441997,49.31264 C112.441997,50.3647845 112.259209,51.318848 111.893633,52.1748301 C111.528057,53.0308122 111.024276,53.7664218 110.38229,54.3816589 C109.740303,54.996896 108.982403,55.4739275 108.108588,55.8127539 C107.234772,56.1515803 106.280709,56.3209933 105.246397,56.3209933 C104.212086,56.3209933 103.258023,56.1515803 102.384207,55.8127539 C101.510392,55.4739275 100.752492,54.996896 100.110505,54.3816589 C99.4685184,53.7664218 98.9647374,53.0308122 98.5991616,52.1748301 C98.2335858,51.318848 98.0507981,50.3647845 98.0507981,49.31264 Z M108.804073,49.31264 C108.804073,48.7776512 108.714908,48.2917029 108.536579,47.8547955 C108.358249,47.4178881 108.108588,47.043396 107.787594,46.731319 C107.466601,46.4192421 107.08765,46.1784971 106.650743,46.0090842 C106.213836,45.8396712 105.74572,45.7549645 105.246397,45.7549645 C104.747074,45.7549645 104.278959,45.8396712 103.842052,46.0090842 C103.405144,46.1784971 103.026194,46.4192421 102.705201,46.731319 C102.384207,47.043396 102.134546,47.4178881 101.956216,47.8547955 C101.777887,48.2917029 101.688722,48.7776512 101.688722,49.31264 C101.688722,49.8476288 101.777887,50.3335771 101.956216,50.7704845 C102.134546,51.2073919 102.384207,51.581884 102.705201,51.893961 C103.026194,52.2060379 103.405144,52.4467829 103.842052,52.6161958 C104.278959,52.7856088 104.747074,52.8703155 105.246397,52.8703155 C105.74572,52.8703155 106.213836,52.7856088 106.650743,52.6161958 C107.08765,52.4467829 107.466601,52.2060379 107.787594,51.893961 C108.108588,51.581884 108.358249,51.2073919 108.536579,50.7704845 C108.714908,50.3335771 108.804073,49.8476288 108.804073,49.31264 Z M118.112878,44.8187341 C118.469537,44.034084 118.955485,43.4188469 119.570723,42.9730227 C120.18596,42.5271986 120.966152,42.3042867 121.911299,42.3042867 C122.16096,42.3042867 122.38833,42.3221198 122.593409,42.3577856 C122.798488,42.3934514 123.008026,42.4380339 123.222021,42.4915328 L123.222021,46.2899533 C122.97236,46.2007886 122.713782,46.1428314 122.446287,46.1160819 C122.178793,46.0893325 121.902382,46.0759578 121.617055,46.0759578 C120.440079,46.0759578 119.584097,46.4014094 119.049108,47.0523123 C118.51412,47.7032152 118.246625,48.6706534 118.246625,49.9546266 L118.246625,56 L114.715699,56 L114.715699,42.62528 L118.112878,42.62528 L118.112878,44.8187341 Z M131.353851,45.728215 C130.854528,45.728215 130.390871,45.8129217 129.96288,45.9823347 C129.534889,46.1517477 129.164855,46.3924927 128.852778,46.7045696 C128.540701,47.0166465 128.295498,47.3955967 128.117169,47.8414208 C127.938839,48.2872449 127.849674,48.7776512 127.849674,49.31264 C127.849674,49.8476288 127.938839,50.3380351 128.117169,50.7838592 C128.295498,51.2296833 128.540701,51.6086335 128.852778,51.9207104 C129.164855,52.2327873 129.534889,52.4735323 129.96288,52.6429453 C130.390871,52.8123583 130.854528,52.897065 131.353851,52.897065 C132.352497,52.897065 133.186188,52.5760717 133.854924,51.9340851 C134.52366,51.2920986 134.858028,50.4182834 134.858028,49.31264 C134.858028,48.1891635 134.52366,47.3108904 133.854924,46.6778202 C133.186188,46.0447499 132.352497,45.728215 131.353851,45.728215 Z M138.281956,37.275392 L138.281956,56 L134.75103,56 L134.75103,54.1275392 C134.26954,54.8051915 133.654303,55.3446387 132.905318,55.7458803 C132.156334,56.1471219 131.291436,56.3477427 130.310623,56.3477427 C129.472474,56.3477427 128.687823,56.1917045 127.956672,55.8796275 C127.225521,55.5675506 126.579076,55.1128101 126.017338,54.5154061 C125.455599,53.9180021 125.014234,53.1823925 124.69324,52.3085773 C124.372247,51.4347621 124.21175,50.4361165 124.21175,49.31264 C124.21175,48.1891635 124.372247,47.1905179 124.69324,46.3167027 C125.014234,45.4428875 125.451141,44.7072779 126.003963,44.1098739 C126.556785,43.5124699 127.198771,43.0577294 127.929923,42.7456525 C128.661074,42.4335755 129.436808,42.2775373 130.257124,42.2775373 C131.309268,42.2775373 132.205375,42.4959912 132.945443,42.9328986 C133.685511,43.3698059 134.287373,43.9092531 134.75103,44.5512397 L134.75103,37.275392 L138.281956,37.275392 Z M141.090647,38.8001101 C141.090647,38.1581235 141.304643,37.6186763 141.732634,37.181769 C142.160625,36.7448616 142.695613,36.5264077 143.3376,36.5264077 C143.979587,36.5264077 144.519034,36.7448616 144.955941,37.181769 C145.392849,37.6186763 145.611302,38.1581235 145.611302,38.8001101 C145.611302,39.4420966 145.392849,39.9770854 144.955941,40.4050765 C144.519034,40.8330675 143.979587,41.047063 143.3376,41.047063 C142.695613,41.047063 142.160625,40.8330675 141.732634,40.4050765 C141.304643,39.9770854 141.090647,39.4420966 141.090647,38.8001101 Z M145.103063,42.62528 L145.103063,56 L141.572137,56 L141.572137,42.62528 L145.103063,42.62528 Z M147.564012,49.31264 C147.564012,48.2604955 147.742341,47.3019736 148.099,46.4370752 C148.455659,45.5721768 148.950524,44.8321088 149.583594,44.2168717 C150.216664,43.6016346 150.970107,43.129061 151.843922,42.7991514 C152.717737,42.4692417 153.6718,42.3042867 154.706112,42.3042867 C155.77609,42.3042867 156.739069,42.4781581 157.595052,42.8259008 C158.451034,43.1736435 159.182185,43.6506751 159.788506,44.2569958 L157.782298,47.0924365 C157.407805,46.7179443 156.970898,46.4014094 156.471575,46.1428314 C155.972252,45.8842533 155.383764,45.7549645 154.706112,45.7549645 C154.206789,45.7549645 153.743132,45.8396712 153.315141,46.0090842 C152.88715,46.1784971 152.517116,46.4192421 152.205039,46.731319 C151.892962,47.043396 151.647759,47.4178881 151.46943,47.8547955 C151.2911,48.2917029 151.201935,48.7776512 151.201935,49.31264 C151.201935,49.8476288 151.2911,50.3335771 151.46943,50.7704845 C151.647759,51.2073919 151.892962,51.581884 152.205039,51.893961 C152.517116,52.2060379 152.88715,52.4467829 153.315141,52.6161958 C153.743132,52.7856088 154.206789,52.8703155 154.706112,52.8703155 C155.383764,52.8703155 155.985627,52.7365683 156.511699,52.4690739 C157.037772,52.2015795 157.488054,51.8805862 157.862546,51.5060941 L159.815255,54.3415347 C159.2446,54.9121893 158.522366,55.3847629 157.64855,55.759255 C156.774735,56.1337472 155.77609,56.3209933 154.652613,56.3209933 C153.636134,56.3209933 152.690988,56.1560383 151.817172,55.8261286 C150.943357,55.496219 150.194373,55.0236454 149.57022,54.4084083 C148.946066,53.7931712 148.455659,53.0575616 148.099,52.2015795 C147.742341,51.3455974 147.564012,50.3826176 147.564012,49.31264 Z" id="MultimediaNordic" fill="#FFFFFF" fill-rule="nonzero"></path>
                </g>
            </g>
        </g>
    </g>
</svg>