<?xml version="1.0" encoding="UTF-8"?>
<svg width="13px" height="10px" viewBox="0 0 13 10" version="1.1" xmlns="http://www.w3.org/2000/svg" xmlns:xlink="http://www.w3.org/1999/xlink">
<!-- Generator: Sketch 53.2 (72643) - https://sketchapp.com -->
<g id="Site" stroke="none" stroke-width="1" fill="none" fill-rule="evenodd">
    <g id="multimedianordic-brief" transform="translate(-619.000000, -881.000000)" fill="#58CC4C" fill-rule="nonzero">
        <g id="Group-7" transform="translate(143.000000, 311.000000)">
            <path d="M476.15,575.5 C476.05,575.4 476,575.25 476,575.15 C476,575.05 476.05,574.9 476.15,574.8 L476.85,574.1 C477.05,573.9 477.35,573.9 477.55,574.1 L477.6,574.15 L480.35,577.1 C480.45,577.2 480.6,577.2 480.7,577.1 L487.4,570.15 L487.45,570.15 L487.45,570.15 C487.65,569.95 487.95,569.95 488.15,570.15 L488.85,570.85 C489.05,571.05 489.05,571.35 488.85,571.55 L488.85,571.55 L480.85,579.85 C480.75,579.95 480.65,580 480.5,580 C480.35,580 480.25,579.95 480.15,579.85 L476.25,575.65 L476.15,575.5 Z" id="tick"></path>
        </g>
    </g>
</g>
</svg>